<?xml version="1.0" encoding="utf-8"?>
<!-- Generator: Adobe Illustrator 27.2.0, SVG Export Plug-In . SVG Version: 6.00 Build 0)  -->
<svg version="1.1" id="Layer_1" xmlns="http://www.w3.org/2000/svg" xmlns:xlink="http://www.w3.org/1999/xlink" x="0px" y="0px"
	 viewBox="0 0 8503.94 4818.9" enable-background="new 0 0 8503.94 4818.9" xml:space="preserve">
<g>
	<g>
		<rect x="8132.69" y="1536.57" fill="#002CC4" width="312.3" height="313.53"/>
		<rect x="8132.69" y="1223.04" fill="#3975F4" width="312.3" height="313.53"/>
		<rect x="8132.69" y="909.51" fill="#002CC4" width="312.3" height="313.53"/>
		<rect x="7820.39" y="909.51" fill="#002CC4" width="312.3" height="313.53"/>
		<rect x="6883.5" y="909.51" fill="#002CC4" width="312.3" height="313.53"/>
		<rect x="6883.5" y="1223.04" fill="#3975F4" width="312.3" height="313.53"/>
		<rect x="7195.8" y="1536.57" fill="#002CC4" width="312.3" height="313.53"/>
		<rect x="6258.9" y="1536.57" fill="#002CC4" width="312.3" height="313.53"/>
		<rect x="5946.6" y="1536.57" fill="#3975F4" width="312.3" height="313.53"/>
		<rect x="5946.6" y="1850.1" fill="#3975F4" width="312.3" height="313.53"/>
		<rect x="5634.31" y="2163.63" fill="#3975F4" width="312.3" height="313.53"/>
		<rect x="6258.9" y="2163.63" fill="#002CC4" width="312.3" height="313.53"/>
		<rect x="6258.9" y="2477.16" fill="#3975F4" width="312.3" height="313.53"/>
		<rect x="5946.6" y="2477.16" fill="#002CC4" width="312.3" height="313.53"/>
		<rect x="5946.6" y="2790.69" fill="#3975F4" width="312.3" height="313.53"/>
		<rect x="5946.6" y="3104.22" fill="#002CC4" width="312.3" height="313.53"/>
		<rect x="5634.31" y="3417.75" fill="#002CC4" width="312.3" height="313.53"/>
		<rect x="6258.9" y="3417.75" fill="#3975F4" width="312.3" height="313.53"/>
		<rect x="6571.2" y="3104.22" fill="#002CC4" width="312.3" height="313.53"/>
		<rect x="6883.5" y="2790.69" fill="#002CC4" width="312.3" height="313.53"/>
		<rect x="7195.8" y="3104.22" fill="#3975F4" width="312.3" height="313.53"/>
		<rect x="7508.09" y="2790.69" fill="#002CC4" width="312.3" height="313.53"/>
		<rect x="7820.39" y="2790.69" fill="#002CC4" width="312.3" height="313.53"/>
		<rect x="7820.39" y="2477.16" fill="#3975F4" width="312.3" height="313.53"/>
		<rect x="7820.39" y="2163.63" fill="#002CC4" width="312.3" height="313.53"/>
		<rect x="7820.39" y="1850.1" fill="#3975F4" width="312.3" height="313.53"/>
		<rect x="8132.69" y="2477.16" fill="#002CC4" width="312.3" height="313.53"/>
		<rect x="8132.69" y="2163.63" fill="#3975F4" width="312.3" height="313.53"/>
		<rect x="8132.69" y="1850.1" fill="#002CC4" width="312.3" height="313.53"/>
		<rect x="8132.69" y="2790.69" fill="#3975F4" width="312.3" height="313.53"/>
		<rect x="6883.5" y="2477.16" fill="#3975F4" width="312.3" height="313.53"/>
		<rect x="7195.8" y="2477.16" fill="#002CC4" width="312.3" height="313.53"/>
		<rect x="7195.8" y="2163.63" fill="#3975F4" width="312.3" height="313.53"/>
		<rect x="6883.5" y="3417.75" fill="#002CC4" width="312.3" height="313.53"/>
		<rect x="7508.09" y="3417.75" fill="#002CC4" width="312.3" height="313.53"/>
		<rect x="8132.69" y="3417.75" fill="#002CC4" width="312.3" height="313.53"/>
		<rect x="5634.31" y="2790.69" fill="#3975F4" width="312.3" height="313.53"/>
		<rect x="6258.9" y="1850.1" fill="#3975F4" width="312.3" height="313.53"/>
		<rect x="6571.2" y="1850.1" fill="#002CC4" width="312.3" height="313.53"/>
		<rect x="6883.5" y="1850.1" fill="#3975F4" width="312.3" height="313.53"/>
		<rect x="6571.2" y="2163.63" fill="#002CC4" width="312.3" height="313.53"/>
		<rect x="5634.31" y="1536.57" fill="#3975F4" width="312.3" height="313.53"/>
		<rect x="6571.2" y="909.51" fill="#3975F4" width="312.3" height="313.53"/>
		<rect x="6258.9" y="1223.04" fill="#002CC4" width="312.3" height="313.53"/>
		<rect x="5634.31" y="909.51" fill="#3975F4" width="312.3" height="313.53"/>
	</g>
	<g>
		<path d="M362.53,1785.46c15.77,0,29.26-5.72,40.49-17.16c11.21-11.43,16.82-25.07,16.82-40.91c0-15.83-5.61-29.47-16.82-40.9
			c-11.22-11.43-24.72-17.16-40.49-17.16c-15.77,0-29.27,5.72-40.48,17.16c-11.22,11.43-16.82,25.07-16.82,40.9
			c0,15.84,5.6,29.48,16.82,40.91C333.25,1779.73,346.76,1785.46,362.53,1785.46z"/>
		<path d="M605.96,2004.51c0,25.34-7.01,41.17-21.03,47.52c-6.3,2.81-23.48,4.22-51.53,4.22H311c-29.44,0-47.32-1.41-53.63-4.22
			c-13.66-5.98-20.51-21.82-20.51-47.52v-173.66H121.2v224.34c0,76.36,39.07,114.55,117.24,114.55h365.42
			c78.16,0,117.26-38.18,117.26-114.55v-224.34H605.96V2004.51z"/>
		<path d="M493.45,1785.46c16.12,0,29.79-5.63,41.01-16.9c11.21-11.25,16.82-24.98,16.82-41.17c0-16.18-5.61-29.9-16.82-41.17
			c-11.22-11.25-24.9-16.89-41.01-16.89c-15.77,0-29.19,5.72-40.22,17.16c-11.04,11.43-16.56,25.07-16.56,40.9
			c0,15.84,5.52,29.48,16.56,40.91C464.26,1779.73,477.68,1785.46,493.45,1785.46z"/>
		<path d="M930.9,2169.73h58.37h31.02h2700.86c78.16,0,117.25-38.18,117.25-114.55v-224.34h-115.14v173.66
			c0,25.34-7.02,41.17-21.03,47.52c-6.66,3.16-23.84,4.58-51.53,4.22H1020.29h-31.02c-38.92,0-58.37-17.07-58.37-51.2v-434.95
			H815.23v487.21C815.23,2132.26,853.78,2169.73,930.9,2169.73z"/>
		<path d="M3775.3,1783.34c15.78,0,29.35-5.71,40.75-17.16c11.39-11.43,17.09-25.07,17.09-40.9c0-15.84-5.7-29.38-17.09-40.65
			c-11.4-11.27-24.97-16.9-40.75-16.9c-15.77,0-29.35,5.63-40.74,16.9c-11.4,11.27-17.09,24.8-17.09,40.65
			c0,15.83,5.69,29.47,17.09,40.9C3745.94,1777.63,3759.53,1783.34,3775.3,1783.34z"/>
		<path d="M4351.12,2246.53c-11.04,11.44-16.56,25.07-16.56,40.9c0,15.84,5.52,29.47,16.56,40.91
			c11.04,11.44,24.45,17.16,40.23,17.16c16.12,0,29.79-5.63,41.01-16.9c11.21-11.27,16.82-24.98,16.82-41.17
			c0-16.19-5.61-29.91-16.82-41.17c-11.22-11.27-24.9-16.89-41.01-16.89C4375.57,2229.38,4362.16,2235.1,4351.12,2246.53z"/>
		<path d="M4317.73,2287.44c0-15.83-5.61-29.47-16.82-40.9c-11.22-11.43-24.72-17.16-40.48-17.16c-15.78,0-29.27,5.72-40.49,17.16
			c-11.22,11.44-16.83,25.07-16.83,40.9c0,15.84,5.61,29.47,16.83,40.91c11.21,11.44,24.71,17.16,40.49,17.16
			c15.77,0,29.26-5.72,40.48-17.16C4312.12,2316.91,4317.73,2303.28,4317.73,2287.44z"/>
		<path d="M4457.06,2169.73h134.97c78.16,0,117.24-38.18,117.24-114.55v-224.34h-115.14v173.66c0,25.34-7.02,41.17-21.03,47.52
			c-6.66,3.16-59.43,4.58-87.11,4.22h-28.93h-29.96h-40.5v-225.4h-115.14v225.4h-100.42h-66.09h-0.52
			c-38.92,0-58.37-17.07-58.37-51.2v-434.95h-115.66v487.21c0,74.96,38.55,112.43,115.66,112.43h58.89h66.09h256.06H4457.06z"/>
		<path d="M4610.96,2246.53c-11.22,11.44-16.82,25.07-16.82,40.9c0,15.84,5.6,29.47,16.82,40.91
			c11.21,11.44,24.71,17.16,40.48,17.16c16.12,0,29.79-5.63,41.01-16.9c11.21-11.27,16.82-24.98,16.82-41.17
			c0-16.19-5.61-29.91-16.82-41.17c-11.22-11.27-24.9-16.89-41.01-16.89C4635.66,2229.38,4622.17,2235.1,4610.96,2246.53z"/>
		<path d="M485.75,2767.95c13.48-9.31,25.88-20.67,35.67-34.97c13.31-19.38,21.57-44.05,21.54-74.69v-1.47
			c0.11-37.29-12.74-68.89-37.79-93.9c-31.57-31.63-80.24-48.23-140.43-48.23H117.62v8.93v524.06H370.6
			c59.08-0.03,108.83-11.91,144.56-36.94c35.79-24.94,56.56-63.77,56.39-113.29v-1.47c0.06-36.12-9.76-64.55-27.79-86.37
			C529.05,2791.75,509.12,2778.61,485.75,2767.95z M370.6,2930.47H245.36V2835h121.57c27.92-0.03,47.04,5.27,58.38,13.36
			c11.24,8.15,16.11,18.49,16.29,33.63v1.47c-0.2,16.82-5.94,27.06-17.3,34.89C412.86,2926.1,394.52,2930.51,370.6,2930.47z
			 M413.02,2677.42c-0.01,8.35-1.69,14.95-4.62,20.39c-4.41,8.1-11.89,14.2-23.34,18.57c-11.39,4.33-26.53,6.58-44.51,6.57h-95.19
			v-91.06h102.52c22.68-0.03,39.38,4.65,49.71,12.13c10.26,7.55,15.27,17.3,15.43,31.93V2677.42z"/>
		<path d="M1001.72,2511l-2.3,5.43l-225.17,531.23h134.52l46.91-115.53l205.01,0l46.91,115.53h137.44L1117.57,2511H1001.72z
			 M1113.09,2814.19h-109.82l54.91-134.55L1113.09,2814.19z"/>
		<polygon points="1707.73,2713.03 1590.31,2514.68 1437.13,2514.68 1641.58,2838.22 1641.58,3047.67 1772.26,3047.67 
			1772.26,2836.04 1976.79,2514.68 1827.25,2514.68 		"/>
		<path d="M2296.28,2511l-2.3,5.43l-225.17,531.23h134.52l46.91-115.53l205.01,0l46.91,115.53h137.44L2412.13,2511H2296.28z
			 M2407.65,2814.19h-109.82l54.91-134.55L2407.65,2814.19z"/>
		<polygon points="3216.88,2814.31 2989.76,2514.68 2872.36,2514.68 2872.36,2523.62 2872.36,3047.67 3001.58,3047.67 
			3001.58,2737.73 3236.76,3047.67 3346.09,3047.67 3346.09,2514.68 3216.88,2514.68 		"/>
		<path d="M3806.32,2511l-2.3,5.43l-225.16,531.23h134.52l46.91-115.53l205.01,0l46.92,115.53h137.44L3922.18,2511H3806.32z
			 M3917.71,2814.19h-109.82l54.91-134.55L3917.71,2814.19z"/>
		<polygon points="4279.79,2514.68 4279.79,2637.03 4435.93,2637.03 4435.93,3047.67 4566.6,3047.67 4566.6,2637.03 
			4722.73,2637.03 4722.73,2514.68 		"/>
	</g>
	<g>
		<path fill="#002CC4" d="M1094.5,3630.09H964.31l-23.45,49.89h-58.79l117.23-245.92h60.2l117.23,245.92h-58.79L1094.5,3630.09z
			 M1072.79,3584.43l-43.39-92.4l-43.39,92.4H1072.79z"/>
		<path fill="#002CC4" d="M1562.74,3541.92v7.73c0,99.06-62.29,134.21-129.13,134.21c-73.49,0-144.53-41.46-144.53-127.18
			c0-86.08,71.73-126.83,147.67-126.83c40.94,0,86.44,12.3,116.19,30.21l-15.75,46.73c-23.09-14.41-57.74-28.12-97.28-28.12
			c-53.19,0-93.78,22.85-93.78,77.29c0,55.52,42.34,79.05,86.78,79.05c37.44,0,67.19-17.91,72.09-49.54h-67.19v-43.56H1562.74z"/>
		<path fill="#002CC4" d="M1852.85,3574.94v44.97h-34.29v60.08h-57.39v-60.08h-168.33v-47.78l154.68-138.07h71.04v140.87H1852.85z
			 M1655.49,3574.94h105.68v-94.51L1655.49,3574.94z"/>
		<path fill="#002CC4" d="M1875.97,3625.52c31.84-6.66,181.97-38.29,181.97-107.16c0-29.15-26.24-39.7-60.19-39.7
			c-44.1,0-82.59,17.57-106.73,31.63l-15.4-47.08c29.4-17.22,74.89-33.37,125.28-33.37c58.44,0,114.08,22.14,114.08,83.26
			c0,74.14-80.14,103.3-130.88,118.04h131.57v48.84h-239.71V3625.52z"/>
		<path fill="#002CC4" d="M2233.28,3582.66c0-63.95,47.59-100.13,110.23-100.13c29.75,0,56.69,7.73,84.34,23.18l-18.55,42.51
			c-20.65-15.11-41.29-21.77-65.09-21.77c-31.5,0-58.09,19.66-58.09,55.51c0,36.18,26.24,56.92,57.74,56.92
			c23.8,0,44.45-7.74,66.15-22.85l19.24,42.51c-29.04,18.28-57.39,25.66-86.43,25.66
			C2280.52,3684.2,2233.28,3646.26,2233.28,3582.66z"/>
		<path fill="#002CC4" d="M2449.21,3584.08c0-60.08,44.79-101.54,107.43-101.54c61.94,0,106.03,41.1,106.03,101.17
			c0,59.38-44.09,100.49-106.03,100.49C2494,3684.2,2449.21,3643.44,2449.21,3584.08z M2610.88,3583.71
			c0-32.67-23.1-54.09-54.95-54.09c-31.14,0-53.89,21.42-53.89,54.09c0,32.32,22.74,53.41,53.89,53.41
			C2587.78,3637.12,2610.88,3616.03,2610.88,3583.71z"/>
		<path fill="#002CC4" d="M2994.77,3560.88v119.1h-52.14v-114.53c0-21.42-9.1-34.78-28.69-34.78c-24.49,0-40.94,21.44-43.39,64.3
			v85.02h-51.79v-114.53c0-21.42-9.45-34.78-28.69-34.78c-26.6,0-43.74,24.6-43.74,76.59v72.72h-51.45v-193.22h51.45v46.02
			c10.15-29.17,31.14-50.24,60.19-50.24c30.8,0,52.49,16.87,60.54,48.48c10.84-28.45,32.54-48.48,63.34-48.48
			C2969.93,3482.54,2994.77,3509.94,2994.77,3560.88z"/>
		<path fill="#002CC4" d="M3251.65,3582.66c0,59.38-39.89,101.19-93.79,101.19c-32.89,0-58.79-16.17-73.84-42.88v105.76h-51.79
			v-259.28h51.79v37.59c14.7-26.36,40.6-42.51,73.84-42.51C3212.46,3482.54,3251.65,3524,3251.65,3582.66z M3198.81,3583.01
			c0-32.32-22.74-55.51-57.04-55.51c-34.64,0-57.74,23.18-57.74,55.51c0,32.32,23.1,55.51,57.74,55.51
			C3176.06,3638.52,3198.81,3615.34,3198.81,3583.01z"/>
		<path fill="#002CC4" d="M3470.03,3564.4v115.58h-52.14v-47.78c-17.85,33.02-46.9,50.94-82.59,50.94
			c-29.39,0-55.63-14.41-55.63-46.02c0-53.41,87.48-72.72,137.52-81.16c-3.5-21.07-19.6-29.15-43.04-29.15
			c-25.9,0-54.24,10.19-74.19,23.53l-16.1-40.75c25.55-16.17,58.44-27.05,92.74-27.05
			C3426.29,3482.54,3470.03,3503.61,3470.03,3564.4z M3417.89,3584.43c-53.54,10.88-82.94,21.07-82.94,40.05
			c0,11.95,11.9,16.5,22.4,16.5C3384.29,3640.98,3414.73,3612.88,3417.89,3584.43z"/>
		<path fill="#002CC4" d="M3708.7,3571.43v108.55h-51.45v-100.13c0-32.32-13.99-49.19-41.63-49.19c-31.15,0-56.69,27.4-56.69,91.7
			v57.62h-51.45v-193.22h51.45v53.74c12.25-33.72,37.79-57.96,74.19-57.96C3680,3482.54,3708.7,3513.1,3708.7,3571.43z"/>
		<path fill="#002CC4" d="M3957.53,3486.76l-91.34,194.27c-24.15,49.89-42,74.48-86.79,74.48c-11.9,0-25.89-1.4-43.04-4.57
			l7.35-47.06c14.33,3.85,25.89,5.62,35.69,5.62c19.25,0,26.95-12.65,34.3-28.82l1.75-3.85l-89.59-190.06h55.98l60.19,131.73
			l59.84-131.73H3957.53z"/>
	</g>
</g>
</svg>
